<svg id="Layer_1" data-name="Layer 1" xmlns="http://www.w3.org/2000/svg" viewBox="0 0 58.58 58.58"><title>logo</title><polygon points="36.05 33.63 36.05 22.53 24.95 22.53 23.74 22.53 22.53 22.53 22.53 24.95 22.53 36.05 34.84 36.05 36.05 36.05 36.05 34.84 36.05 33.63" style="fill:#fff"/><path d="M68.47,21.53A19.87,19.87,0,0,0,34.86,32.15c-.07.41-.13.81-.17,1.22s-.08.81-.1,1.22,0,.65,0,1V55.43H51.73c0-.33,0-.66,0-1V51.76H38.24V35.57c0-.34,0-.67,0-1s.07-.81.12-1.21.13-.82.22-1.22A16.18,16.18,0,1,1,57.86,51.39v3c0,.24,0,.48,0,.71A19.86,19.86,0,0,0,68.47,21.53Z" transform="translate(-15.71 -15.71)" style="fill:#fff"/><path d="M38.24,38.24H51.76V54.43c0,.34,0,.67,0,1s-.07.81-.12,1.21-.13.82-.22,1.21A16.18,16.18,0,1,1,32.15,38.61v-3c0-.24,0-.48,0-.71A19.86,19.86,0,1,0,55.41,55.41c0-.16,0-.32,0-.48v-.5h0V34.57H38.27c0,.33,0,.66,0,1Z" transform="translate(-15.71 -15.71)" style="fill:#fff"/></svg>